<svg xmlns="http://www.w3.org/2000/svg" xmlns:xlink="http://www.w3.org/1999/xlink" version="1.1" width="256" height="256" viewBox="0 0 256 256" xml:space="preserve">

<defs>
</defs>
<g style="stroke: none; stroke-width: 0; stroke-dasharray: none; stroke-linecap: butt; stroke-linejoin: miter; stroke-miterlimit: 10; fill: rgb(27,65,87); fill-rule: nonzero; opacity: 1;" transform="translate(0 -2.842170943040401e-14) scale(2.81 2.81)" >
	<circle cx="45" cy="45" r="45" style="stroke: none; stroke-width: 1; stroke-dasharray: none; stroke-linecap: butt; stroke-linejoin: miter; stroke-miterlimit: 10; fill: rgb(27,65,87); fill-rule: nonzero; opacity: 1;" transform="  matrix(1 0 0 1 0 0) "/>
</g>
<g style="stroke: none; stroke-width: 0; stroke-dasharray: none; stroke-linecap: butt; stroke-linejoin: miter; stroke-miterlimit: 10; fill: none; fill-rule: nonzero; opacity: 1;" transform="translate(32.807305370685654 32.807305370685626) scale(2.12 2.12)" >
	<path d="M 1 46 h 88 c 0.552 0 1 -0.448 1 -1 s -0.448 -1 -1 -1 H 1 c -0.553 0 -1 0.448 -1 1 S 0.447 46 1 46 z" style="stroke: none; stroke-width: 1; stroke-dasharray: none; stroke-linecap: butt; stroke-linejoin: miter; stroke-miterlimit: 10; fill: rgb(165,192,208); fill-rule: nonzero; opacity: 1;" transform=" matrix(1 0 0 1 0 0) " stroke-linecap="round" />
	<path d="M 14.943 59.943 c 0.256 0 0.512 -0.098 0.707 -0.293 c 0.391 -0.391 0.391 -1.023 0 -1.414 L 2.414 45 L 15.65 31.764 c 0.391 -0.391 0.391 -1.023 0 -1.414 s -1.023 -0.391 -1.414 0 L 0.293 44.293 c -0.391 0.391 -0.391 1.023 0 1.414 L 14.236 59.65 C 14.432 59.846 14.688 59.943 14.943 59.943 z" style="stroke: none; stroke-width: 1; stroke-dasharray: none; stroke-linecap: butt; stroke-linejoin: miter; stroke-miterlimit: 10; fill: rgb(165,192,208); fill-rule: nonzero; opacity: 1;" transform=" matrix(1 0 0 1 0 0) " stroke-linecap="round" />
</g>
</svg>